<?xml version="1.0" encoding="utf-8"?>
<!-- Generator: Adobe Illustrator 19.2.1, SVG Export Plug-In . SVG Version: 6.00 Build 0)  -->
<svg version="1.1" id="layer" xmlns="http://www.w3.org/2000/svg" xmlns:xlink="http://www.w3.org/1999/xlink" x="0px" y="0px"
	 viewBox="0 0 652 652" style="enable-background:new 0 0 652 652;" xml:space="preserve">
<style type="text/css">
	.st0{fill:#FF5000;}
	.st1{fill:none;stroke:#FF5000;stroke-width:1.1823;stroke-linecap:round;stroke-linejoin:round;stroke-miterlimit:3.864;}
</style>
<g>
	<path class="st0" d="M555.2,351.3c-7.3,10.8-14.8,17.5-25.8,17.5h-7.9c-11,0-17.4-7.7-14.4-17.5H555.2z M621,419.3
		c-9.1-9.3-15-20.6-15-33.7v-58.1c0-33.3-32.5-67.2-73.3-67.2h-37.5c-18.3,0-28.7,11-29.1,33.7c0,8-1.4,13-3.7,16.7h69.9
		c10.9,0,18.5,3.7,22.9,11.2h-85.7c-45.4,70.1,30.8,123.6,89.9,86.6l5.4,6.7c2.2,3.3,5.5,4.7,10,4.2H621z"/>
	<path class="st1" d="M555.2,351.3c-7.3,10.8-14.8,17.5-25.8,17.5h-7.9c-11,0-17.4-7.7-14.4-17.5H555.2z M621,419.3
		c-9.1-9.3-15-20.6-15-33.7v-58.1c0-33.3-32.5-67.2-73.3-67.2h-37.5c-18.3,0-28.7,11-29.1,33.7c0,8-1.4,13-3.7,16.7h69.9
		c10.9,0,18.5,3.7,22.9,11.2h-85.7c-45.4,70.1,30.8,123.6,89.9,86.6l5.4,6.7c2.2,3.3,5.5,4.7,10,4.2H621z"/>
	<path class="st0" d="M101.2,262H155v50.4H97.1c-9.1-0.1-17.5,3.7-20.4,11.2h70.1v32.9H75.9c2.8,7.6,12.1,13.8,21.2,13.7H162
		c-3.2,2.8-4.7,5.5-4.6,8.3v15.6c0,17.8-7.5,27.7-23.3,27.7h-33C56.9,421.9,21,386.1,21,342C21,297.8,56.9,262,101.2,262"/>
	<path class="st1" d="M101.2,262H155v50.4H97.1c-9.1-0.1-17.5,3.7-20.4,11.2h70.1v32.9H75.9c2.8,7.6,12.1,13.8,21.2,13.7H162
		c-3.2,2.8-4.7,5.5-4.6,8.3v15.6c0,17.8-7.5,27.7-23.3,27.7h-33C56.9,421.9,21,386.1,21,342C21,297.8,56.9,262,101.2,262z"/>
	<path class="st0" d="M252.6,420.6c-22.9-22.9-36.6-47.5-37-81.6V214.1h-52.8V339c0.4,34.1,10.5,61.1,27.8,81.6H252.6z"/>
	<path class="st1" d="M252.6,420.6c-22.9-22.9-36.6-47.5-37-81.6V214.1h-52.8V339c0.4,34.1,10.5,61.1,27.8,81.6H252.6z"/>
	<path class="st0" d="M304.4,262h53.8v50.4h-57.8c-9.1-0.1-17.5,3.7-20.4,11.2H350v32.9h-70.9c2.8,7.6,12.1,13.8,21.2,13.7h64.9
		c-3.2,2.8-4.7,5.5-4.6,8.3v15.6c0,17.8-7.5,27.7-23.3,27.7h-33c-44.3,0-80.2-35.8-80.2-79.9C224.2,297.8,260.1,262,304.4,262"/>
	<path class="st1" d="M304.4,262h53.8v50.4h-57.8c-9.1-0.1-17.5,3.7-20.4,11.2H350v32.9h-70.9c2.8,7.6,12.1,13.8,21.2,13.7h64.9
		c-3.2,2.8-4.7,5.5-4.6,8.3v15.6c0,17.8-7.5,27.7-23.3,27.7h-33c-44.3,0-80.2-35.8-80.2-79.9C224.2,297.8,260.1,262,304.4,262z"/>
	<path class="st0" d="M455.8,260.4v50.8h-26.2c-6,0-7.8,4.4-4.2,8.3c38.8,35,16.8,101.1-34.3,101.1h-21v-50.4h27
		c2.8,0,4.3-2.8,0.8-5.4c-42-30.4-24.5-104.5,35.3-104.5H455.8z"/>
	<path class="st1" d="M455.8,260.4v50.8h-26.2c-6,0-7.8,4.4-4.2,8.3c38.8,35,16.8,101.1-34.3,101.1h-21v-50.4h27
		c2.8,0,4.3-2.8,0.8-5.4c-42-30.4-24.5-104.5,35.3-104.5H455.8z"/>
	<path class="st0" d="M605.5,259.5c4.8,0,8.4,4,8.4,8.6c0,4.8-3.8,8.6-8.4,8.6c-4.6,0-8.4-3.9-8.4-8.6
		C597.1,263.4,600.8,259.5,605.5,259.5 M605.6,257.3c-6.2,0-10.8,5-10.8,10.8c0,5.9,4.8,10.8,10.8,10.8c5.9,0,10.7-4.8,10.7-10.8
		C616.3,262.3,611.5,257.3,605.6,257.3 M605.5,264.1c0.6,0,1.9,0,1.9,1.5c0,1.8-1.4,1.8-2.1,1.8h-1.4v-3.4H605.5z M600.9,262v12h3
		v-4.6h1.2c1.9,0,2.1,1.1,2.1,1.7c0.1,0.4,0.2,2.4,0.4,2.9h2.9c-0.2-0.6-0.2-0.8-0.4-2.9c-0.1-1.8-0.8-2.4-1.7-2.8
		c1.6-0.7,1.9-1.9,1.9-2.9c0-2.4-2.1-3.4-4.4-3.4H600.9z"/>
</g>
</svg>
