<?xml version="1.0" encoding="utf-8"?>
<!-- Generator: Adobe Illustrator 19.0.0, SVG Export Plug-In . SVG Version: 6.00 Build 0)  -->
<svg version="1.1" id="layer" xmlns="http://www.w3.org/2000/svg" xmlns:xlink="http://www.w3.org/1999/xlink" x="0px" y="0px"
	 viewBox="-153 -46 652 652" style="enable-background:new -153 -46 652 652;" xml:space="preserve">
<style type="text/css">
	.st0{fill:#00468B;}
</style>
<polyline class="st0" points="-131.5,338.2 -131.5,340.6 -124.2,340.6 -124.2,360 -121.3,360 -121.3,340.6 -114,340.6 -114,338.2 
	"/>
<polyline class="st0" points="-111.6,338.2 -108.7,338.2 -108.7,347.6 -97.2,347.6 -97.2,338.2 -94.2,338.2 -94.2,360 -97.2,360 
	-97.2,350 -108.7,350 -108.7,360 -111.6,360 "/>
<polyline class="st0" points="-89.5,338.2 -74.4,338.2 -74.4,340.6 -86.5,340.6 -86.5,347.6 -75.2,347.6 -75.2,350 -86.5,350 
	-86.5,357.6 -74.3,357.6 -74.3,360 -89.5,360 "/>
<polyline class="st0" points="-62.2,338.2 -59.3,338.2 -59.3,347.6 -47.8,347.6 -47.8,338.2 -44.9,338.2 -44.9,360 -47.8,360 
	-47.8,350 -59.3,350 -59.3,360 -62.2,360 "/>
<polyline class="st0" points="-40.1,338.2 -25,338.2 -25,340.6 -37.2,340.6 -37.2,347.6 -25.8,347.6 -25.8,350 -37.2,350 
	-37.2,357.6 -24.9,357.6 -24.9,360 -40.1,360 "/>
<path class="st0" d="M-15.4,338.2h3.2l8.5,21.9h-3.2l-2.4-6.6h-9.2L-21,360h-3 M-17.6,351h7.4l-3.6-10.2h-0.1L-17.6,351z"/>
<g>
	<path class="st0" d="M-1.5,338.2H8.8c4.1,0,6.6,2.2,6.6,5.7c0,2.6-1.2,4.8-3.8,5.5v0.1c2.5,0.5,3.1,2.4,3.3,4.5
		c0.2,2.1,0.1,4.5,1.3,6h-3.2c-0.8-0.9-0.4-3.2-0.8-5.4c-0.3-2.1-0.8-3.9-3.6-3.9H1.4v9.3h-2.9 M7.5,348.2c2.7,0,5.1-0.7,5.1-3.9
		c0-2.1-1.2-3.7-3.9-3.7H1.4v7.6H7.5z"/>
	<polyline class="st0" points="23.9,340.6 16.6,340.6 16.6,338.2 34.1,338.2 34.1,340.6 26.8,340.6 26.8,360 23.9,360 	"/>
	<path class="st0" d="M54.3,337.6c7,0,10.5,5.5,10.5,11.4c0,5.9-3.5,11.5-10.5,11.5c-7,0-10.5-5.5-10.5-11.5
		C43.8,343.2,47.3,337.6,54.3,337.6 M54.3,358.1c5.3,0,7.6-4.6,7.6-9c0-4.4-2.2-9-7.6-9c-5.3,0-7.6,4.6-7.6,9
		C46.7,353.5,48.9,358.1,54.3,358.1"/>
	<polyline class="st0" points="68.3,338.2 82.7,338.2 82.7,340.6 71.2,340.6 71.2,347.6 81.3,347.6 81.3,350 71.2,350 71.2,360 
		68.3,360 	"/>
	<polyline class="st0" points="94.4,338.2 109.5,338.2 109.5,340.6 97.3,340.6 97.3,347.6 108.7,347.6 108.7,350 97.3,350 
		97.3,357.6 109.6,357.6 109.6,360 94.4,360 	"/>
	<polyline class="st0" points="121.7,360 118.4,360 110.7,338.2 113.9,338.2 120.1,357.1 120.2,357.1 126.5,338.2 129.5,338.2 	"/>
	<polyline class="st0" points="131.9,338.2 147,338.2 147,340.6 134.8,340.6 134.8,347.6 146.1,347.6 146.1,350 134.8,350 
		134.8,357.6 147,357.6 147,360 131.9,360 	"/>
	<path class="st0" d="M150.6,338.2h10.3c4.1,0,6.6,2.2,6.6,5.7c0,2.6-1.2,4.8-3.8,5.5v0.1c2.5,0.5,3.1,2.4,3.3,4.5
		c0.2,2.1,0.1,4.5,1.3,6H165c-0.8-0.9-0.4-3.2-0.8-5.4c-0.3-2.1-0.8-3.9-3.6-3.9h-7.1v9.3h-2.9 M159.6,348.2c2.7,0,5.1-0.7,5.1-3.9
		c0-2.1-1.2-3.7-3.9-3.7h-7.2v7.6H159.6z"/>
	<polyline class="st0" points="179.5,351.1 179.5,360 176.6,360 176.6,351.1 168.1,338.2 171.6,338.2 178.1,348.6 184.5,338.2 
		187.8,338.2 	"/>
	<path class="st0" d="M215.2,357.3c-1.7,2.3-4.4,3.2-7,3.2c-6.5,0-10.4-5.3-10.4-11c0-6.4,3.5-11.9,10.4-11.9c4.8,0,8.6,2.1,9.4,7.3
		h-2.9c-0.6-3.3-3.2-4.8-6.5-4.8c-5.3,0-7.5,4.6-7.5,9.3c0,4.6,2.6,8.7,7.5,8.7c4.5,0,7.2-3.2,7-7.1h-7v-2.4h9.6V360h-1.8"/>
	<path class="st0" d="M222.1,338.2h10.3c4.1,0,6.6,2.2,6.6,5.7c0,2.6-1.2,4.8-3.8,5.5v0.1c2.5,0.5,3.1,2.4,3.3,4.5
		c0.2,2.1,0.1,4.5,1.3,6h-3.2c-0.8-0.9-0.4-3.2-0.8-5.4c-0.3-2.1-0.8-3.9-3.6-3.9H225v9.3h-2.9 M231,348.2c2.7,0,5.1-0.7,5.1-3.9
		c0-2.1-1.2-3.7-3.9-3.7H225v7.6H231z"/>
	<polyline class="st0" points="243.1,338.2 258.1,338.2 258.1,340.6 246,340.6 246,347.6 257.3,347.6 257.3,350 246,350 246,357.6 
		258.2,357.6 258.2,360 243.1,360 	"/>
	<path class="st0" d="M267.7,338.2h3.2l8.5,21.9h-3.2l-2.4-6.6h-9.2l-2.5,6.6h-3 M265.5,351h7.4l-3.6-10.2h-0.1L265.5,351z"/>
	<polyline class="st0" points="283.8,340.6 276.5,340.6 276.5,338.2 294,338.2 294,340.6 286.7,340.6 286.7,360 283.8,360 	"/>
	<polyline class="st0" points="305,338.2 309,338.2 315.8,356.5 322.8,338.2 326.8,338.2 326.8,360 324,360 324,341.8 323.9,341.8 
		317.1,360 314.6,360 307.8,341.8 307.7,341.8 307.7,360 305,360 	"/>
	<path class="st0" d="M337.6,338.2h3.2l8.5,21.9h-3.2l-2.4-6.6h-9.2L332,360h-3 M335.4,351h7.4l-3.6-10.2h-0.1L335.4,351z"/>
	<path class="st0" d="M366.8,344.8c-0.6-3.1-3.1-4.7-6.1-4.7c-5.2,0-7.4,4.3-7.4,8.9c0,5,2.2,9.2,7.4,9.2c3.8,0,6-2.7,6.3-6.3h2.9
		c-0.5,5.5-4,8.8-9.5,8.8c-6.8,0-10.1-5-10.1-11.4c0-6.3,3.6-11.5,10.4-11.5c4.6,0,8.3,2.4,9,7.1"/>
	<polyline class="st0" points="373.6,338.2 376.5,338.2 376.5,347.6 388,347.6 388,338.2 390.9,338.2 390.9,360 388,360 388,350 
		376.5,350 376.5,360 373.6,360 	"/>
	<rect x="395.8" y="338.2" class="st0" width="2.9" height="21.9"/>
	<polyline class="st0" points="403.6,338.2 406.7,338.2 418.2,355.9 418.3,355.9 418.3,338.2 421,338.2 421,360 417.8,360 
		406.4,342.5 406.4,342.5 406.4,360 403.6,360 	"/>
	<polyline class="st0" points="425.8,338.2 440.9,338.2 440.9,340.6 428.7,340.6 428.7,347.6 440,347.6 440,350 428.7,350 
		428.7,357.6 441,357.6 441,360 425.8,360 	"/>
	<path class="st0" d="M-33.3,250.9c4.6,4.9,6.9,10.6,6.9,17.1c0,7-2.4,12.9-7.3,17.8c-4.9,4.9-10.8,7.3-17.8,7.3
		c-6.7,0-12.4-2.3-17.1-6.8l-9.2,9.2l-9.2-9.3c-4.9,4.6-10.7,6.9-17.4,6.9c-7,0-12.9-2.4-17.7-7.3c-4.8-4.9-7.3-10.8-7.3-17.8
		c0-6.5,2.3-12.2,6.8-17.1c-1.3-1.3-4.3-4.3-9-9.1l9.1-9.1c-4.6-4.8-6.8-10.5-6.8-16.9c0-7,2.4-12.9,7.2-17.8
		c4.8-4.9,10.7-7.3,17.7-7.3c6.8,0,12.6,2.3,17.4,7c1.4-1.3,4.4-4.4,9.2-9.1c2,1.9,5.1,4.9,9.1,9c4.9-4.6,10.6-6.9,17.2-6.9
		c7,0,12.9,2.4,17.8,7.3c4.8,4.8,7.2,10.8,7.2,17.8c0,6.4-2.2,12.1-6.7,16.9l9,9 M-104.3,200.4c-4.3,0-8,1.5-11,4.6
		c-3,3-4.5,6.7-4.5,11c0,4,1.3,7.3,4,10.1l22.2-21.5C-96.7,201.8-100.2,200.4-104.3,200.4 M-115.6,257.6c-2.6,2.8-3.8,6.2-3.8,10.2
		c0,4.2,1.5,7.9,4.5,11c3,3.1,6.5,4.7,10.7,4.7c4.1,0,7.6-1.4,10.4-4.3L-115.6,257.6z M-40.3,237.8c-3.2,1.8-6.9,2.7-11.1,2.7
		c-6.9,0-12.8-2.4-17.6-7.2c-4.9-4.8-7.3-10.7-7.3-17.6c0-3.8,0.9-7.3,2.6-10.7l-4-4.4c-0.5,0.5-1.9,1.9-4.1,4.2
		c1.7,3.4,2.5,7,2.5,10.9c0,6.9-2.4,12.8-7.3,17.6c-4.9,4.8-10.8,7.2-17.7,7.2c-3.5,0-7.1-0.8-10.7-2.4l-3.5,3.5l3.6,3.6
		c3.8-1.6,7.3-2.4,10.7-2.4c7,0,12.9,2.4,17.8,7.3c4.9,4.9,7.3,10.8,7.3,17.8c0,3.8-0.8,7.4-2.3,10.7l3.9,4.1l3.7-3.9
		c-1.6-3.6-2.4-7.2-2.4-10.9c0-6.9,2.4-12.8,7.3-17.7c4.8-4.9,10.7-7.4,17.7-7.4c3.8,0,7.5,0.9,11.1,2.7l3.9-3.9L-40.3,237.8z
		 M-89.2,212.3c-3.6,3.6-9.7,9.8-18.5,18.5c1.3,0.2,2.4,0.3,3.4,0.3c4.4,0,8.1-1.4,11.1-4.3c3-2.9,4.6-6.5,4.6-10.9
		C-88.6,214.8-88.8,213.6-89.2,212.3 M-104.3,252.6c-1.1,0-2.1,0.1-3.1,0.2l18,18.1c0.2-1.1,0.4-2.1,0.4-3.1c0-4.3-1.5-7.9-4.4-10.8
		C-96.4,254.1-100,252.6-104.3,252.6 M-66.3,212.1c-0.3,1.1-0.5,2.4-0.5,3.9c0,4.3,1.5,7.9,4.5,10.8c3,2.9,6.6,4.4,10.9,4.4
		c1.5,0,2.8-0.1,3.9-0.3L-66.3,212.1z M-51.4,252.6c-4.2,0-7.8,1.5-10.8,4.4c-2.9,2.9-4.4,6.5-4.4,10.8c0,1.4,0.1,2.6,0.4,3.7
		l18.4-18.6C-49.1,252.7-50.2,252.6-51.4,252.6 M-40.1,257.7c-4,4.2-11.2,11.5-21.5,21.8c2.9,2.7,6.2,4,10.1,4
		c4.3,0,7.9-1.6,10.9-4.7c3-3.1,4.5-6.8,4.5-11.1C-36.1,264-37.4,260.6-40.1,257.7 M-51.4,200.4c-4,0-7.3,1.4-10.1,4.1l21.6,21.5
		c2.7-2.8,4-6.2,4-10c0-4.3-1.5-8-4.5-11.1C-43.4,201.9-47.1,200.4-51.4,200.4"/>
	<path class="st0" d="M-0.5,194h42c10.6,0,18.7,3.2,24.3,9.5c4.8,5.5,7.2,12.5,7.2,21.1c0,8.7-2.4,15.7-7.2,21.2
		c-5.6,6.3-13.7,9.5-24.3,9.5H19.6v34.3H-0.5 M19.6,239h15.3c5.7,0,9.9-0.9,12.6-2.8c3.3-2.2,5-6.1,5-11.5c0-5.6-1.8-9.5-5.3-11.7
		c-2.7-1.7-6.8-2.5-12.4-2.5H19.6V239z"/>
	<path class="st0" d="M92.4,259.6c0,11.5,5.6,17.3,16.8,17.3c3,0,5.9-0.8,8.8-2.3c3.2-1.7,5.2-3.9,6-6.5H141
		c-5.2,15.4-16.1,23.1-32.5,23.1c-10.8,0-19.4-3.3-25.8-10c-6.4-6.7-9.7-15.4-9.7-26.1c0-10.7,3.1-19.4,9.3-26.2
		c6.7-7.3,15.4-11,26.2-11c11,0,19.5,4.1,25.6,12.4c5.4,7.4,8.1,17.1,8.1,29.3 M122.8,247.6c-1.8-9.7-6.7-14.6-14.8-14.6
		c-5.2,0-9.2,1.8-12.2,5.4c-2.2,2.7-3.4,5.8-3.4,9.2H122.8z"/>
	<path class="st0" d="M151.1,219.3h17.5v11.7h0.2c3.1-5.3,6.2-8.8,9.4-10.5c3-1.6,7.7-2.5,13.9-2.6c1.2,0,2.5,0.2,3.9,0.7v17.5
		c-1.7-0.4-3.8-0.6-6.4-0.6c-13.4,0-20.1,7.7-20.1,23v31h-18.4"/>
	<path class="st0" d="M271.2,289.6c-0.9-0.1-3.2-0.2-6.9-0.2c-3.7,0-8.8,0-15.4,0.1l-21.4-32l-6,5.9v26h-18V194h18v49.7l23.7-24.7
		h22.3l-26.1,26.2"/>
	<path class="st0" d="M275.5,202.6c0-2.9,1-5.4,3-7.5c2-2,4.5-3.1,7.4-3.1c2.9,0,5.4,1,7.4,3.1c2,2,3,4.5,3,7.5c0,2.9-1,5.4-3,7.4
		c-2,2-4.5,3-7.4,3c-2.9,0-5.4-1-7.4-3C276.5,208,275.5,205.5,275.5,202.6 M276.3,289.5h19V219h-19V289.5z"/>
	<path class="st0" d="M305,219.1h17.9v11.4h0.5c2.7-4.5,5.7-7.7,8.8-9.4c3.8-2.1,7.5-3.1,11.2-3.1c10,0,17,2.6,20.9,7.8
		c3.3,4.4,5,11.5,5,21.5v42.2h-18.8v-38.7c0-5-0.7-8.8-2-11.4c-1.9-3.7-5.6-5.5-11.1-5.5c-5.3,0-9,2.1-11.3,6.2
		c-1.6,2.9-2.4,7.4-2.4,13.5v35.9H305"/>
	<path class="st0" d="M394.5,266.9c0,3.3,1.7,6.2,5.1,8.8c2.5,1.9,5.8,2.8,9.9,2.8c8.7,0,13.1-2.9,13.1-8.8c0-3.1-3.5-5.7-10.6-7.8
		c-2.3-0.7-6.1-1.6-11.2-2.8c-5.5-1.2-9.2-2.3-11.2-3.2c-7.3-3.2-11-8.3-11-15.2c0-14.7,10-22,30-22c20.3,0,30.5,7.2,30.5,21.7
		h-17.4c0-6.1-4.5-9.2-13.5-9.2c-6.8,0-10.1,2.1-10.1,6.4c0,3.7,3.6,6.3,10.7,8c5.3,1.1,9,1.9,11,2.3c3.8,0.8,7.2,1.9,10.2,3.3
		c7.2,3.3,10.8,8.6,10.8,15.9c0,8.6-3.2,14.9-9.7,19c-5.3,3.3-12.5,5-21.6,5c-9.2,0-16.6-1.7-22.2-5.1c-6.8-4.1-10.1-10.5-10.1-19.1
		"/>
	<path class="st0" d="M457.7,219c1.8,0,3.6,0.5,5.3,1.4c1.7,0.9,3.1,2.3,4,4c1,1.7,1.4,3.5,1.4,5.4c0,1.9-0.5,3.6-1.4,5.4
		c-0.9,1.7-2.3,3-4,4c-1.7,0.9-3.5,1.4-5.4,1.4c-1.9,0-3.7-0.5-5.4-1.4c-1.7-0.9-3-2.3-4-4c-1-1.7-1.4-3.5-1.4-5.4
		c0-1.9,0.5-3.7,1.4-5.4c1-1.7,2.3-3.1,4-4C454.2,219.5,455.9,219,457.7,219 M457.7,220.8c-1.5,0-3,0.4-4.4,1.2
		c-1.4,0.8-2.6,1.9-3.4,3.3c-0.8,1.4-1.2,3-1.2,4.5c0,1.6,0.4,3,1.2,4.5c0.8,1.4,1.9,2.5,3.3,3.3c1.4,0.8,2.9,1.2,4.5,1.2
		c1.6,0,3-0.4,4.5-1.2c1.4-0.8,2.5-1.9,3.3-3.3c0.8-1.4,1.2-2.9,1.2-4.5c0-1.6-0.4-3.1-1.2-4.5c-0.8-1.4-1.9-2.6-3.4-3.3
		C460.7,221.2,459.3,220.8,457.7,220.8 M453,235.8v-11.6h4c1.4,0,2.3,0.1,2.9,0.3c0.6,0.2,1.1,0.6,1.5,1.1c0.4,0.5,0.5,1.1,0.5,1.7
		c0,0.8-0.3,1.6-0.9,2.2c-0.6,0.6-1.4,1-2.4,1.1c0.4,0.2,0.7,0.4,1,0.6c0.5,0.5,1,1.2,1.7,2.3l1.4,2.3h-2.3l-1-1.8
		c-0.8-1.4-1.5-2.3-1.9-2.7c-0.4-0.3-0.9-0.4-1.5-0.4h-1.1v4.9H453z M454.9,229.3h2.3c1.1,0,1.8-0.2,2.2-0.5
		c0.4-0.3,0.6-0.8,0.6-1.3c0-0.3-0.1-0.7-0.3-0.9c-0.2-0.3-0.5-0.5-0.8-0.6c-0.3-0.1-1-0.2-1.9-0.2h-2.1V229.3z"/>
</g>
</svg>
