<svg id="Layer_1" data-name="Layer 1" xmlns="http://www.w3.org/2000/svg" viewBox="0 0 989.11 234.81"><defs><style>.cls-1{fill:#00b5a5;}</style></defs><path d="M784.56,931.41h30.6c11.2,0,19.4,2.6,26.4,10s9.19,16.4,9.19,33.4c0,12.4-1,20.8-5.79,28.6-5.61,9.19-14.61,14.8-29.6,14.8H805v55.59h-20.4ZM805,999h9.8c16.59,0,16.8-9.8,16.8-24,0-13.4,0-24.4-16-24.4H805Z" transform="translate(-461.64 -885.61)"/><path d="M894.76,965c0-23.2,17.59-34.8,34.19-34.8s34.2,11.6,34.2,34.8v75.19c0,23.2-17.6,34.8-34.2,34.8s-34.19-11.6-34.19-34.8Zm20.39,75.19c0,9.8,6.41,14.4,13.8,14.4s13.8-4.6,13.8-14.4V965c0-9.8-6.4-14.4-13.8-14.4s-13.8,4.6-13.8,14.4Z" transform="translate(-461.64 -885.61)"/><path d="M1077.15,972.41h-20.4v-4.6c0-9.4-4-17.2-14.4-17.2-11.2,0-13.8,9-13.8,18.4,0,11,1,14.8,11.6,19l15.6,6.2c18,6.79,21.4,18.2,21.4,39,0,24-8.8,41.8-35.2,41.8-19.8,0-34.8-14.6-34.8-33.8v-7.6h20.4v6.4c0,7.4,4,14.6,14.4,14.6,13.8,0,14.8-8.2,14.8-21.2,0-15.19-1.8-17.6-11.8-21.6l-14.6-6c-17.6-7.19-22.2-18.79-22.2-36.59,0-21.6,11.6-39,35-39,20.4,0,34,16.4,34,32.2Z" transform="translate(-461.64 -885.61)"/><path d="M1123,931.41h20.4V1073.8H1123Z" transform="translate(-461.64 -885.61)"/><path d="M1206.55,950.61H1183v-19.2h67.6v19.2H1227V1073.8h-20.4Z" transform="translate(-461.64 -885.61)"/><path d="M1301.15,931.41h17L1350,1073.8h-20.4l-6-30.6h-27.8l-6,30.6h-20.4Zm8.6,41h-.4l-10,51.59h20.4Z" transform="translate(-461.64 -885.61)"/><path d="M1390,931.41h20.4v122h40.4v20.4H1390Z" transform="translate(-461.64 -885.61)"/><polygon class="cls-1" points="0 0 50.67 13.58 101.35 27.16 64.25 64.25 27.16 101.35 13.58 50.67 0 0"/><polygon class="cls-1" points="223.69 0 173.01 13.58 122.34 27.16 159.44 64.25 196.53 101.35 210.11 50.67 223.69 0"/><polygon class="cls-1" points="0 234.81 50.67 221.23 101.35 207.65 64.25 170.56 27.16 133.46 13.58 184.14 0 234.81"/><polygon class="cls-1" points="223.69 234.81 173.01 221.23 122.34 207.65 159.44 170.56 196.53 133.46 210.11 184.14 223.69 234.81"/></svg>